<svg id="Lager_1" data-name="Lager 1" xmlns="http://www.w3.org/2000/svg" viewBox="0 0 274 274"><defs><style>.cls-1{fill:#276300;}.cls-2{fill:#e9ffde;}.cls-3{font-size:18px;font-family:AvenirNext-Bold, Avenir Next;font-weight:700;}.cls-4{letter-spacing:-0.02em;}.cls-5{fill:#2d3d68;}.cls-6{fill:#080731;}.cls-7{fill:#7c99d8;opacity:0.5;}.cls-8{fill:#696c9e;}.cls-9{fill:#4d5f95;}.cls-10{fill:#080410;}.cls-11{fill:#56699c;}.cls-12{fill:#ae8e8d;}</style></defs><title>BlueProfile</title><circle class="cls-1" cx="137" cy="137" r="137"/><circle class="cls-2" cx="137" cy="137" r="121"/><text class="cls-3" transform="translate(71 198.36)"><tspan class="cls-4">L</tspan><tspan x="9.14" y="0">ogged In: Blue</tspan></text><path class="cls-5" d="M197.36,89.31a40,40,0,0,1,11.1,8.41c6.81,7.47,8.89,15.82,10.37,21.74a32,32,0,0,1,1.34,9.76,29.73,29.73,0,0,1-3.89,13.44c-4.75,8.6-12.25,12.55-15.56,14.24a42.46,42.46,0,0,1-26.12,3.9c-19.07-3.43-28.32-19.31-30-22.21-2.29-3.94-6.79-11.91-6-22.54a36.58,36.58,0,0,1,6-17c1.72-2.71,5.72-8.88,13.09-12.87C174.64,77,194.22,87.61,197.36,89.31Z" transform="translate(-13 -13)"/><path class="cls-6" d="M182.24,91.18c.86-.1,1.19.89,2.61,1.8a7.57,7.57,0,0,0,3.84,1.11c2.49.12,2.74-1.1,4.4-.81,1.17.2,2.44,1.65,4.93,4.55a34.43,34.43,0,0,0,2.32,2.75c2.61,2.38,4.26,1.86,5.21,3.59a5.33,5.33,0,0,1-.43,5.08c-.32.51-1.55,1.35-4,3-1.91,1.29-2.13,1.39-2.48,1.37-1.84-.15-1.75-3.41-4-4.27-2-.8-3.22,1.55-6.59,1.21-.42,0-3.46-.34-4.53-2.35-.91-1.7.29-3.31-.81-4.4-.67-.66-1.25-.18-2.88-.83-.7-.28-2.91-1.15-3.29-3a3.37,3.37,0,0,1,.83-2.88,7.11,7.11,0,0,1,2.48-1.37c.79-.33,1.08-.36,1.24-.68.32-.65-.55-1.22-.41-2.2A2,2,0,0,1,182.24,91.18Z" transform="translate(-13 -13)"/><path class="cls-7" d="M201.28,110a4.36,4.36,0,0,1-2.12.39,21.94,21.94,0,0,1-3.14,0h0a3.07,3.07,0,0,0-1.46-1.29c-1-.4-1.82,0-2.81.47a19.33,19.33,0,0,1-8.2-4.82,1.55,1.55,0,0,0-.46-1,1.5,1.5,0,0,0-1.09-.41c-2.31-2.08-2.71-2.86-2.72-3.69-.05-1.7,1.47-3,2-3.43a7.94,7.94,0,0,1,4.49-1.7,14,14,0,0,1,6.73.94,17.79,17.79,0,0,1,4.35,2.26,20.38,20.38,0,0,1,2.11,1.71h0a12.12,12.12,0,0,1,1.25,1.38,0,0,0,0,0,0,0,9.73,9.73,0,0,1,1.74,3.38C202.45,106,202.74,109,201.28,110Z" transform="translate(-13 -13)"/><path class="cls-8" d="M188.94,100.41c.58-.49,2.51.93,3.57,2.07.76.82.72,1.11.68,1.24-.18.51-1.34.68-2.2.4a3,3,0,0,1-1.64-1.51C189,102,188.52,100.77,188.94,100.41Z" transform="translate(-13 -13)"/><path class="cls-9" d="M107.12,174.6a44.3,44.3,0,0,0,21.28,2,43.72,43.72,0,0,0,17.74-7.36c4.59-3,11.07-7.36,14.89-15.48,5.69-12.07,1.52-24.18.49-26.92-7.81-20.78-31.8-25-33.29-25.24-5.26-.84-17.75-1.83-29.83,6-4,2.55-15.83,11.16-18.22,27-.3,2-2.42,17.73,8.15,29.42C94.3,170.57,101.54,172.85,107.12,174.6Z" transform="translate(-13 -13)"/><path class="cls-10" d="M107.7,118.56c-.06-.18-.16-.13-.48-.49a3.82,3.82,0,0,1-.88-2c-.1-.72-.07-2.27.83-2.88,1.21-.82,2.68,1,5.08.43.75-.16.75-.37,2.48-1.37,2.89-1.67,4.34-2.51,5.91-2.45a6.4,6.4,0,0,1,4.53,2.35c.89,1.11.51,1.53,1.37,2.48,1.71,1.89,4.44,1.48,4.52,2.34.05.48-.79.53-1.51,1.65-.45.68-.42,1.09-.84,2.88a12.28,12.28,0,0,1-.83,2.88c-.62,1-1.65,1.42-3.72,2-4.36,1.34-6.54,2-7.83,1.9-2.29-.2-1.92-1-5.77-1.67a9.66,9.66,0,0,1-3.84-1.11c-.66-.41-2.34-1.44-2.33-2.75C104.42,120.88,108.07,119.6,107.7,118.56Z" transform="translate(-13 -13)"/><path class="cls-11" d="M127,122.19a11.15,11.15,0,0,1-.72,2.5c-.54.88-1.43,1.23-3.22,1.78-3.79,1.16-5.68,1.75-6.81,1.65-2-.18-1.66-.84-5-1.45a8.46,8.46,0,0,1-3.33-1c-.58-.35-2-1.24-2-2.39,0-1.67,3.19-2.78,2.87-3.68,0-.15-.14-.12-.42-.43a3.22,3.22,0,0,1-.75-1.63c.56-.4,1-.64,1.06-.69a4.8,4.8,0,0,1,1.72-1.73,2.32,2.32,0,0,1,.67-.28,5.1,5.1,0,0,1,2.39.17,3,3,0,0,0,1.19,0c1.59-.35,1.47-1.33,3.22-1.78a9.52,9.52,0,0,1,3.58.13,5,5,0,0,1,2.46.68l0,0c.8.68.45,1.27,1.18,2.15a2.65,2.65,0,0,0,.82.68c.65.34,1.32.38,1.84.71a1.55,1.55,0,0,1,.44.41,1.71,1.71,0,0,1,.32.83,3.1,3.1,0,0,0-.8.84A7.28,7.28,0,0,0,127,122.19Z" transform="translate(-13 -13)"/><path class="cls-12" d="M116.12,118.25a.7.7,0,0,1,.18-.63,1.94,1.94,0,0,1,2.11-.08c.74.41,1,1.1.59,1.54a1.91,1.91,0,0,1-2.1.08A1.46,1.46,0,0,1,116.12,118.25Z" transform="translate(-13 -13)"/></svg>