<svg id="Lager_1" data-name="Lager 1" xmlns="http://www.w3.org/2000/svg" viewBox="0 0 274 274"><defs><style>.cls-1{fill:#276300;}.cls-2{fill:#e9ffde;}.cls-3{font-size:18px;font-family:AvenirNext-Bold, Avenir Next;font-weight:700;}.cls-4{letter-spacing:-0.02em;}.cls-5{letter-spacing:-0.02em;}.cls-6{letter-spacing:-0.1em;}.cls-7{fill:#e3aa00;}.cls-8{fill:#f8db00;}.cls-9{fill:#611917;}</style></defs><title>ProfileYellow</title><circle class="cls-1" cx="137" cy="137" r="137"/><circle class="cls-2" cx="137" cy="137" r="121"/><text class="cls-3" transform="translate(65 198.36)"><tspan class="cls-4">L</tspan><tspan x="9.14" y="0">ogged In:</tspan><tspan class="cls-5" x="94.07" y="0"> </tspan><tspan class="cls-6" x="98.14" y="0">Y</tspan><tspan x="108.34" y="0">ellow</tspan></text><path class="cls-7" d="M70.4,104c.57.47,2.36,1.91,3.24,1.63s.46-2,1.22-2.43,2.45.3,6.48,4.47c.14.2.33.45.4.41s0-.34,0-.41c-.1-.45-.22-2.4-.39-7.7h-.81V98c.1-.6.27-.77.41-.81.46-.12,1.23,1.06,1.61,2a7.26,7.26,0,0,1,.41,1.62c.27,1.67.31,2.62.4,3.25a12.81,12.81,0,0,0,2.42,5.68c.55.8.44.48,1.61,2a27.3,27.3,0,0,0,2.83,3.66,12.47,12.47,0,0,0,2.43,1.62,38.6,38.6,0,0,0,5.68,2.45,71.64,71.64,0,0,1,6.88,3.26c2.77,1.41,4.77,2.56,5.27,2.85,2.62,1.51,4.1,2.52,5.26,3.25,4.33,2.72,8.24,4.07,13,5.7a78.88,78.88,0,0,0,10.13,2.86,84.26,84.26,0,0,0,15.81,1.66,91.46,91.46,0,0,0,20.68-2,91.07,91.07,0,0,0,28-11.29,33.22,33.22,0,0,1,4.87-2.83c2.75-1.29,3.44-1.12,6.09-2.42a41.68,41.68,0,0,0,5.28-3.23c2.81-1.91,3.29-2.52,5.28-3.64a26.39,26.39,0,0,1,4.46-2,1.31,1.31,0,0,0,.41.81c.35.3.67.11,1.21.41a2.37,2.37,0,0,1,.81.81c.29.44.19.53.4.81.36.48.79.4,1.62.82s.71.57,1.22.81a3.28,3.28,0,0,0,2.43,0,6.78,6.78,0,0,1,.4,1.21c.44,1.92-.05,3.6-.82,5.68s-1.22,2.93-2,4.86c-1.38,3.28-1.35,3.86-2.44,6.48a50.5,50.5,0,0,1-3.26,6.48A56.63,56.63,0,0,1,217.48,155a61.86,61.86,0,0,1-8.52,6.07,83.77,83.77,0,0,1-13,6.46,124.24,124.24,0,0,1-31.65,7.64,113.59,113.59,0,0,1-42.56-5c-9.27-2.9-18.65-5.94-27.95-14.25-2.09-1.86-7.87-6.41-10.92-13a25.09,25.09,0,0,1-2.42-7.71c-.14-1.06,0-.79-.39-6.08-.25-3.55-.25-3-.4-5.27a31.8,31.8,0,0,0-.39-4.87,21.81,21.81,0,0,0-1.61-4.46c-1.67-3.81-2.2-4.87-2.83-5.68a8.1,8.1,0,0,0-2-2c-.57-.39-.88-.47-2-1.23l-1.21-.81c-.12-.5-.22-1.09,0-1.22S70.14,103.82,70.4,104Z" transform="translate(-13 -13)"/><path class="cls-8" d="M82.9,109.88c0,.06.07.15.13.26a29.93,29.93,0,0,0,4.33,6.63,14.34,14.34,0,0,0,2,2,12.91,12.91,0,0,0,5.68,2.43c4.51.93,8.08,5.11,10.54,7.3,6.15,5.48,22.48,13.75,39.33,16.63,6.69,1.14,21.48,2.76,35.68-1.62a141.38,141.38,0,0,0,13.79-5.28c7.32-3.21,11-4.69,13.79-6.89a36.56,36.56,0,0,1,6.89-4.86c3.1-1.63,3.36-1.1,5.27-2.44,1.58-1.11,1.42-1.48,6.49-7.3l2.84-3.24-.82-.4a93.3,93.3,0,0,1-9.32,6.08c-1.73,1-3.05,1.66-12.57,6.08-9.87,4.58-11.94,5.47-14.6,6.49-3.62,1.39-6.53,2.34-8.11,2.84a99.74,99.74,0,0,1-18.65,4.46,76.22,76.22,0,0,1-17.44,0c-17.41-1.72-31.79-8.13-36.08-12.17a19.73,19.73,0,0,0-3.65-2.84c-2-1.17-2.57-1-6.9-2.84-2.57-1.07-2.92-1.35-4.86-2-2.32-.81-3-.82-4.06-1.22-1.73-.66-4-2.18-6.08-6.08l-2-1.22" transform="translate(-13 -13)"/><path class="cls-9" d="M65.47,97.31c-.2,1.42.81,2.66,1.62,3.65,1.42,1.74,1.81,1.57,3.65,3.24,1.22,1.12,1.31,2,2,2,1,0,1.17-1.33,2.43-1.62,1-.23,1.92.4,3.65,1.62a22.1,22.1,0,0,1,3.24,2.84c.33.14.66.16.81,0s-.21-.88-.4-1.22c-.92-1.59-1.35-4.25-.41-5.67.63-1,1.61-1,1.62-1.62s-.71-1-1.62-1.63a14.74,14.74,0,0,1-3.24-2.83c-1.21-1.63-.19-2.34-1.22-4.06-.68-1.15-1.19-.93-5.68-3.65-1.45-.88-2.44-1.54-2.83-1.22s.64,2.25,0,2.84-2-.5-2.44,0,.52,1.28.41,2.84a10.31,10.31,0,0,1-.81,2.43A12.63,12.63,0,0,0,65.47,97.31Z" transform="translate(-13 -13)"/><path class="cls-9" d="M229.28,111.5c-.07,1.12.17,1.49.41,1.63s.66-.16,1.21,0,.52.49,1.22,1.21a4.62,4.62,0,0,0,1.62,1.22c.78.31.94,0,1.62.4s.62.6,1.22.81,1.09.23,1.22,0-.17-.5-.41-.81c-.41-.5-.57-.45-.81-.81s-.1-.67-.41-1.21a1.64,1.64,0,0,0-.81-.81c-.68-.27-1.19.31-1.62,0-.25-.18-.12-.4-.41-.82a2.19,2.19,0,0,0-1.21-.81,5.5,5.5,0,0,0-1.62,0C230,111.52,229.55,111.51,229.28,111.5Z" transform="translate(-13 -13)"/></svg>