<svg id="Lager_1" data-name="Lager 1" xmlns="http://www.w3.org/2000/svg" viewBox="0 0 274 274"><defs><style>.cls-1{fill:#276300;}.cls-2{fill:#e9ffde;}.cls-3{fill:#8c0000;}.cls-4{opacity:0.22;}.cls-5{fill:#008900;}.cls-6{fill:#6b1200;}.cls-7{fill:#ffb4a4;opacity:0.76;}.cls-8{font-size:18px;font-family:AvenirNext-Bold, Avenir Next;font-weight:700;}.cls-9{letter-spacing:-0.02em;}.cls-10{letter-spacing:-0.01em;}</style></defs><title>RedProfile</title><circle class="cls-1" cx="137" cy="137" r="137"/><circle class="cls-2" cx="137" cy="137" r="121"/><path class="cls-3" d="M95.76,84a18.59,18.59,0,0,1,1.15-2.23c1.43-2.37,3.39-4.26,7.43-6.81,4.69-3,7.12-4.52,11.13-5.57a27.77,27.77,0,0,1,12.38-.61c3.66.69,6.36,2.1,11.77,5,1.59.85,3,2.62,5.13,3.64a7.53,7.53,0,0,0,2.3.69,10.43,10.43,0,0,0,2.46,0,69.75,69.75,0,0,1,11.77,0c1-2.27,2.07-4.53,3.1-6.82a3.51,3.51,0,0,1,2.47.64,3.39,3.39,0,0,1,1.25,1.85c-1.25,1.45-2.49,2.88-3.72,4.33a47.73,47.73,0,0,1,5-.62,39.33,39.33,0,0,1,11.15.62,30.86,30.86,0,0,1,12.38,5.56c6.22,4.92,8.28,11.52,9.9,16.72,5.17,16.64.13,31.09-1.23,34.68a56.2,56.2,0,0,1-8.05,14.23c-4.39,5.58-5,4.11-11.77,11.76-4.68,5.32-6.24,8.16-9.9,8.67-3,.42-3.73-1.29-7.43-.62-3.23.58-3.73,2-8,3.09a21.67,21.67,0,0,1-5.56.63,20.11,20.11,0,0,1-8.05-1.87c-1.65-.78-1.58-1.08-3.1-1.85a19,19,0,0,0-8.05-1.86c-2.54-.28-5.7-2.31-14.23-19.82-4.92-10-7.36-15-8.67-20.41a69.06,69.06,0,0,1-1.87-20.43c.64-10.66,1.47-14.23,3.1-16.72a19.71,19.71,0,0,1,5.33-5.42l.24-.16h-11.2Z" transform="translate(-13 -13)"/><path class="cls-4" d="M150.66,83.38v1.79a.5.5,0,0,0-.08-.07c-1.68,0-4.29-.09-7.5,0-4.93.16-8.56.58-9.36.67-3.11.35-9,.56-20.64.4a20.65,20.65,0,0,1,4-3.59,163.5,163.5,0,0,0,16.67-.43c.8-.1,4.43-.51,9.36-.68,2.21,0,4.13-.07,5.67,0C149.32,82,149.93,82.65,150.66,83.38Z" transform="translate(-13 -13)"/><path class="cls-5" d="M153.13,87.26l-4.37-4c-1.68-.05-4.29-.1-7.49,0-4.93.16-8.56.58-9.36.67-4.38.47-14.25.73-37.45,0,.28-.49.7-1.18,1.25-2a33.37,33.37,0,0,1,9.36-9.26,31.43,31.43,0,0,1,9.36-4,33.88,33.88,0,0,1,21.85,2.64,32.53,32.53,0,0,1,6.24,4c2.88,2.34,4,4.12,8.12,7.93,1.58,1.48,2.91,2.62,3.74,3.31Z" transform="translate(-13 -13)"/><path class="cls-6" d="M156.53,87.26c.26.33.93.59,2.85,0a36.08,36.08,0,0,1,2.86-6.42,21.78,21.78,0,0,1,5.7-7.13,19.62,19.62,0,0,1,2.14-1.43,3.16,3.16,0,0,0-.71-2.14c-1-1.13-2.85-1.37-3.57-.71a3.76,3.76,0,0,0-.71,1.42h0v1.43l-1.43,2.14C156.91,84.58,155.91,86.5,156.53,87.26Z" transform="translate(-13 -13)"/><path class="cls-7" d="M140.12,103c0,3.53,8.36,5.79,10.7,6.42,4.05,1.1,8.67,2.35,12.84,0,2.21-1.25,4.83-3.8,4.28-5.71-.47-1.65-3.14-2.19-6.42-2.85-4.11-.83-4.75-.16-9.27-.71-5.35-.66-6.93-1.91-9.28-.72C141.81,100,140.1,101.35,140.12,103Z" transform="translate(-13 -13)"/><text class="cls-8" transform="translate(71 198.36)"><tspan class="cls-9">L</tspan><tspan x="9.14" y="0">ogged In: </tspan><tspan class="cls-10" x="98.57" y="0">R</tspan><tspan x="110.29" y="0">ed</tspan></text></svg>